<?xml version="1.0" standalone="no"?>
<!DOCTYPE svg PUBLIC "-//W3C//DTD SVG 20010904//EN"
 "http://www.w3.org/TR/2001/REC-SVG-20010904/DTD/svg10.dtd">
<svg version="1.0" xmlns="http://www.w3.org/2000/svg"
 width="1024.000000pt" height="1024.000000pt" viewBox="0 0 1024.000000 1024.000000"
 preserveAspectRatio="xMidYMid meet">

<g transform="translate(0.000000,1024.000000) scale(0.100000,-0.100000)"
fill="#000000" stroke="none">
<path d="M4876 8670 c-728 -66 -1383 -363 -1861 -844 -443 -446 -700 -974
-781 -1605 -23 -178 -23 -544 0 -716 74 -547 278 -1036 603 -1445 108 -135
367 -389 511 -500 312 -241 664 -422 1023 -525 277 -80 488 -109 789 -108 359
0 652 51 965 165 925 339 1606 1104 1835 2063 90 376 105 827 39 1200 -87 492
-300 947 -615 1315 -145 170 -383 389 -468 430 -76 36 -156 19 -217 -47 -15
-15 -152 -228 -304 -473 -315 -505 -324 -518 -681 -1071 -145 -224 -301 -467
-347 -540 l-84 -134 -56 -3 c-31 -2 -57 -1 -57 2 0 11 120 207 290 471 437
683 1029 1635 1086 1746 59 116 60 194 2 256 -49 53 -321 171 -558 242 -149
45 -324 82 -505 106 -144 19 -472 27 -609 15z m440 -180 c303 -25 616 -98 892
-211 158 -64 182 -85 182 -162 0 -37 -22 -80 -72 -141 l-24 -28 -60 30 c-257
130 -558 219 -854 253 -156 18 -523 7 -670 -21 -264 -48 -472 -116 -688 -224
-59 -29 -118 -57 -131 -61 -30 -9 -263 -168 -355 -243 -269 -216 -502 -502
-647 -791 -171 -344 -276 -883 -240 -1241 44 -434 173 -819 385 -1145 141
-216 367 -457 584 -625 137 -105 136 -102 86 -187 -30 -52 -77 -87 -107 -79
-12 3 -62 36 -112 74 -65 50 -89 74 -87 88 2 16 1 16 -7 4 -9 -12 -18 -7 -55
29 -25 24 -43 48 -40 53 3 4 -1 5 -8 3 -14 -6 -240 217 -310 305 -57 72 -200
287 -258 388 -151 264 -270 631 -321 987 -20 143 -18 514 5 670 68 475 275
947 573 1307 552 667 1450 1039 2339 968z m94 -450 c143 -25 396 -86 520 -126
115 -36 263 -111 256 -129 -7 -20 -110 -189 -222 -367 -54 -84 -141 -225 -194
-313 -53 -88 -135 -218 -182 -290 -88 -133 -290 -459 -427 -687 -42 -70 -78
-128 -81 -128 -7 0 -362 584 -456 752 -22 40 -99 170 -169 288 -235 394 -425
727 -425 745 0 11 162 85 271 123 442 155 765 193 1109 132z m1446 -116 c72
-49 200 -163 306 -272 432 -447 698 -1092 702 -1700 1 -151 0 -152 -119 -152
-104 0 -125 13 -125 78 0 26 -7 126 -15 222 -30 365 -167 751 -372 1053 -128
188 -159 225 -356 420 l-189 188 7 36 c7 41 52 134 69 145 21 14 53 8 92 -18z
m-2908 -341 c38 -65 91 -156 117 -203 27 -47 85 -146 130 -220 83 -136 159
-267 319 -549 48 -85 139 -237 202 -338 63 -102 146 -239 185 -306 l70 -122
-1047 -3 c-575 -1 -1060 2 -1077 6 l-32 9 2 79 c7 202 97 576 198 814 81 193
358 565 532 716 125 107 297 234 318 234 8 0 45 -53 83 -117z m2767 -88 c181
-162 243 -232 382 -440 110 -164 229 -426 287 -635 29 -101 57 -313 63 -473
l6 -158 -459 6 c-894 10 -1504 24 -1504 33 0 9 74 127 126 202 28 41 98 152
154 245 188 310 710 1134 803 1266 33 48 38 46 142 -46z m-2761 -1820 c516 -2
940 -6 943 -8 4 -5 -202 -355 -342 -582 -34 -55 -140 -230 -235 -390 -95 -159
-193 -324 -219 -365 -193 -311 -248 -395 -261 -398 -38 -7 -414 339 -547 503
-201 249 -350 557 -418 863 -24 110 -55 302 -55 343 l0 38 48 3 c26 2 70 2 97
0 28 -1 472 -5 989 -7z m2081 -15 c143 -5 478 -12 745 -15 267 -3 526 -8 576
-11 l90 -6 -2 -26 c-18 -169 -55 -347 -98 -476 -14 -39 -34 -103 -45 -142 -11
-39 -48 -125 -81 -190 -145 -282 -377 -578 -600 -763 -68 -56 -250 -185 -254
-180 -30 39 -109 170 -473 784 -33 55 -140 233 -239 395 -162 266 -340 565
-374 629 l-12 24 253 -7 c140 -3 371 -11 514 -16z m-793 -265 c212 -346 239
-391 328 -545 46 -80 103 -174 125 -210 23 -36 75 -123 115 -195 72 -126 222
-376 349 -578 33 -54 61 -100 61 -102 0 -10 -199 -98 -305 -135 -275 -94 -481
-130 -753 -130 -346 0 -627 58 -925 190 -114 51 -247 126 -247 139 0 4 19 37
42 72 23 35 78 127 123 204 45 77 126 210 180 295 54 85 155 250 225 365 70
116 170 280 222 365 52 85 139 227 193 315 111 183 116 189 125 178 4 -4 68
-107 142 -228z m2586 219 c28 -19 28 -54 2 -211 -48 -280 -118 -507 -235 -764
-130 -286 -285 -502 -543 -754 -200 -196 -346 -309 -546 -423 -306 -175 -610
-277 -984 -332 -173 -25 -441 -38 -443 -21 -1 6 -2 17 -3 23 0 7 -10 14 -20
16 -18 4 -19 3 -3 -13 29 -28 20 -33 -50 -30 -191 11 -381 42 -555 91 -249 69
-633 240 -652 290 -20 53 23 165 72 182 26 9 39 4 133 -49 158 -90 436 -193
629 -234 308 -65 769 -61 1081 10 241 54 514 169 747 313 265 164 511 399 698
667 197 281 286 478 393 866 12 41 32 142 46 223 13 80 27 151 30 156 11 17
177 12 203 -6z"/>
<path d="M3333 3895 c0 -8 4 -12 9 -9 5 3 6 10 3 15 -9 13 -12 11 -12 -6z"/>
<path d="M3420 3890 c-9 -6 -10 -10 -3 -10 6 0 15 5 18 10 8 12 4 12 -15 0z"/>
<path d="M3440 3749 c0 -5 5 -7 10 -4 6 3 10 8 10 11 0 2 -4 4 -10 4 -5 0 -10
-5 -10 -11z"/>
<path d="M3590 3746 c0 -2 8 -10 18 -17 15 -13 16 -12 3 4 -13 16 -21 21 -21
13z"/>
<path d="M5270 7841 c-95 -29 -200 -112 -239 -189 -31 -61 -45 -159 -33 -236
39 -249 267 -398 500 -327 123 37 205 117 250 243 32 92 34 181 4 256 -68 175
-196 263 -380 261 -43 0 -88 -4 -102 -8z"/>
<path d="M4499 7692 c-81 -52 -102 -157 -53 -262 18 -40 52 -81 124 -150 69
-66 106 -110 120 -142 25 -57 41 -60 84 -15 130 138 134 384 7 514 -49 51
-103 76 -176 81 -53 3 -65 0 -106 -26z"/>
<path d="M4940 6939 c-25 -11 -56 -30 -68 -42 -86 -80 -82 -235 7 -282 59 -30
138 -10 256 65 66 42 87 50 126 50 65 0 79 7 79 40 0 59 -102 156 -190 180
-60 17 -160 12 -210 -11z"/>
<path d="M3614 7197 c-166 -63 -272 -196 -282 -354 -8 -131 36 -241 134 -333
87 -81 148 -104 279 -105 123 0 190 23 268 95 217 198 171 562 -85 680 -63 29
-85 35 -163 37 -75 3 -100 -1 -151 -20z"/>
<path d="M3280 6336 c-99 -26 -185 -116 -197 -205 -5 -33 -1 -42 23 -65 65
-60 188 -71 354 -30 74 18 125 24 174 22 56 -2 71 0 79 14 16 24 -14 113 -53
161 -79 94 -245 140 -380 103z"/>
<path d="M4182 6327 c-83 -32 -145 -115 -146 -198 -1 -63 38 -120 105 -155
109 -55 309 -56 417 -2 47 23 47 23 45 70 -3 98 -83 217 -177 265 -60 31 -188
41 -244 20z"/>
<path d="M6622 7129 c-103 -14 -122 -20 -170 -59 -56 -44 -113 -130 -142 -216
-22 -64 -30 -198 -13 -215 16 -16 74 -13 130 4 26 9 75 21 108 28 92 18 211
67 264 109 72 57 91 89 91 149 0 147 -101 222 -268 200z"/>
<path d="M6710 6589 c-107 -21 -227 -116 -272 -216 -33 -74 -37 -220 -8 -296
59 -157 207 -257 379 -257 156 0 294 88 360 229 22 49 26 69 26 156 0 86 -3
106 -24 145 -69 131 -160 207 -280 234 -76 17 -113 18 -181 5z"/>
<path d="M6095 6411 c-11 -5 -43 -30 -72 -55 -58 -52 -108 -142 -119 -211 -7
-47 12 -139 32 -156 23 -19 121 -13 158 10 79 49 138 167 143 286 5 109 -6
129 -72 132 -28 1 -59 -2 -70 -6z"/>
<path d="M3447 5560 c-158 -27 -310 -176 -337 -329 -39 -213 93 -411 310 -467
176 -45 370 47 452 214 27 54 33 79 36 151 7 157 -55 285 -176 364 -97 64
-184 84 -285 67z"/>
<path d="M4165 5514 c-109 -56 -134 -165 -59 -254 35 -41 65 -55 149 -69 62
-11 74 -17 106 -52 42 -45 66 -49 98 -15 41 44 52 145 25 235 -19 67 -90 141
-150 159 -57 17 -133 15 -169 -4z"/>
<path d="M4000 4814 c-103 -28 -211 -94 -283 -174 -75 -83 -107 -202 -73 -269
19 -36 79 -89 111 -97 93 -23 239 83 297 216 44 100 63 294 32 324 -18 19 -14
19 -84 0z"/>
<path d="M5879 5494 c-90 -27 -178 -132 -179 -212 0 -73 73 -160 166 -195 70
-27 206 -34 275 -14 92 27 169 111 169 185 0 60 -30 132 -72 173 -73 70 -240
100 -359 63z"/>
<path d="M6845 5441 c-84 -22 -186 -97 -254 -188 -28 -37 -51 -75 -51 -84 0
-26 25 -40 82 -46 29 -2 107 -23 173 -46 189 -64 283 -56 342 32 65 96 18 247
-96 310 -46 25 -142 36 -196 22z"/>
<path d="M6375 4997 c-207 -54 -326 -241 -285 -449 16 -85 44 -140 102 -204
131 -142 326 -162 500 -51 112 71 175 201 166 342 -15 234 -263 419 -483 362z"/>
<path d="M5039 5080 c-135 -23 -249 -131 -285 -269 -30 -118 8 -242 102 -333
73 -70 130 -93 234 -92 99 0 170 27 239 89 124 112 147 331 50 472 -68 98
-213 155 -340 133z"/>
<path d="M4593 4346 c-99 -32 -189 -119 -218 -211 -26 -85 -18 -194 21 -265
40 -73 99 -131 169 -166 52 -25 71 -29 145 -29 101 1 155 21 225 86 181 167
135 454 -91 569 -59 30 -184 38 -251 16z"/>
<path d="M5422 4336 c-84 -27 -135 -83 -148 -163 -17 -106 54 -198 218 -283
57 -29 126 -68 155 -88 29 -19 59 -32 67 -29 42 16 80 155 74 266 -9 163 -120
287 -273 304 -31 4 -66 1 -93 -7z"/>
<path d="M6748 3753 c7 -3 16 -2 19 1 4 3 -2 6 -13 5 -11 0 -14 -3 -6 -6z"/>
<path d="M6565 3540 c3 -5 8 -10 11 -10 2 0 4 5 4 10 0 6 -5 10 -11 10 -5 0
-7 -4 -4 -10z"/>
<path d="M6090 3496 c0 -2 7 -7 16 -10 8 -3 12 -2 9 4 -6 10 -25 14 -25 6z"/>
<path d="M3900 3480 c0 -5 5 -10 11 -10 5 0 7 5 4 10 -3 6 -8 10 -11 10 -2 0
-4 -4 -4 -10z"/>
<path d="M6460 3469 c0 -5 5 -7 10 -4 6 3 10 8 10 11 0 2 -4 4 -10 4 -5 0 -10
-5 -10 -11z"/>
<path d="M4070 3450 c0 -5 5 -10 11 -10 5 0 7 5 4 10 -3 6 -8 10 -11 10 -2 0
-4 -4 -4 -10z"/>
<path d="M6173 3445 c0 -8 4 -15 9 -15 4 0 8 4 8 9 0 6 -4 12 -8 15 -5 3 -9
-1 -9 -9z"/>
<path d="M6102 3430 c0 -14 2 -19 5 -12 2 6 2 18 0 25 -3 6 -5 1 -5 -13z"/>
<path d="M6255 3410 c-3 -6 1 -7 9 -4 18 7 21 14 7 14 -6 0 -13 -4 -16 -10z"/>
<path d="M6303 3405 c0 -7 6 -11 14 -8 7 3 13 6 13 8 0 2 -6 5 -13 8 -8 3 -14
-1 -14 -8z"/>
<path d="M4095 3400 c-3 -5 -1 -10 4 -10 6 0 11 5 11 10 0 6 -2 10 -4 10 -3 0
-8 -4 -11 -10z"/>
<path d="M6000 3396 c0 -2 6 -9 14 -15 11 -9 16 -9 22 0 4 8 3 9 -4 5 -7 -4
-12 -2 -12 3 0 6 -4 11 -10 11 -5 0 -10 -2 -10 -4z"/>
<path d="M6273 3385 c0 -8 4 -15 9 -15 4 0 8 4 8 9 0 6 -4 12 -8 15 -5 3 -9
-1 -9 -9z"/>
<path d="M6076 3377 c3 -10 9 -15 12 -12 3 3 0 11 -7 18 -10 9 -11 8 -5 -6z"/>
<path d="M4500 3330 c-9 -6 -10 -10 -3 -10 6 0 15 5 18 10 8 12 4 12 -15 0z"/>
<path d="M6077 3299 c-9 -5 -22 -7 -29 -3 -7 4 -8 3 -4 -4 9 -16 18 -15 42 3
22 17 17 19 -9 4z"/>
<path d="M5870 3286 c0 -2 7 -7 16 -10 8 -3 12 -2 9 4 -6 10 -25 14 -25 6z"/>
<path d="M5928 3283 c7 -3 16 -2 19 1 4 3 -2 6 -13 5 -11 0 -14 -3 -6 -6z"/>
<path d="M6015 3270 c-3 -6 1 -7 9 -4 18 7 21 14 7 14 -6 0 -13 -4 -16 -10z"/>
<path d="M4970 3213 c0 -7 5 -15 10 -18 6 -3 10 -11 10 -16 0 -6 -4 -7 -10 -4
-15 9 -12 -1 3 -14 19 -15 19 17 1 44 -8 11 -14 14 -14 8z"/>
<path d="M4910 3170 c6 -11 16 -20 23 -19 9 0 9 2 0 6 -7 2 -13 11 -13 19 0 8
-5 14 -10 14 -7 0 -7 -6 0 -20z"/>
<path d="M5155 3180 c3 -5 8 -10 11 -10 2 0 4 5 4 10 0 6 -5 10 -11 10 -5 0
-7 -4 -4 -10z"/>
<path d="M5224 3172 c-15 -26 -6 -52 19 -51 12 0 16 3 9 6 -6 2 -10 9 -6 14 3
5 2 9 -3 8 -20 -3 -25 2 -13 16 7 9 11 17 9 20 -3 2 -9 -4 -15 -13z"/>
<path d="M5340 3179 c0 -5 5 -7 10 -4 6 3 10 8 10 11 0 2 -4 4 -10 4 -5 0 -10
-5 -10 -11z"/>
<path d="M5504 3160 c0 -13 4 -16 10 -10 7 7 7 13 0 20 -6 6 -10 3 -10 -10z"/>
<path d="M4854 3149 c-3 -6 -18 -8 -33 -5 -25 5 -25 5 -3 -6 19 -9 26 -8 40 5
9 9 13 17 10 17 -4 0 -10 -5 -14 -11z"/>
<path d="M4880 3142 c-13 -14 -12 -15 3 -9 9 3 17 2 17 -4 0 -15 73 -6 76 9 1
7 0 8 -3 2 -7 -15 -44 -12 -62 4 -14 12 -18 12 -31 -2z"/>
<path d="M5133 3128 c-1 -14 4 -18 20 -16 26 4 26 19 0 29 -14 5 -19 2 -20
-13z"/>
<path d="M5305 3130 c-3 -5 -1 -10 4 -10 6 0 11 5 11 10 0 6 -2 10 -4 10 -3 0
-8 -4 -11 -10z"/>
<path d="M5089 3117 c7 -7 14 -8 21 -1 6 6 2 10 -12 11 -16 2 -18 -1 -9 -10z"/>
<path d="M1669 6923 c-15 -40 -80 -216 -84 -230 -3 -10 -40 -13 -140 -13 -165
0 -171 -8 -63 -90 39 -30 86 -68 104 -85 l33 -30 -28 -90 c-16 -49 -32 -109
-36 -132 -6 -38 -5 -43 12 -43 11 0 65 31 121 69 117 79 99 81 233 -18 46 -33
89 -61 96 -61 21 0 15 49 -18 161 -19 65 -27 109 -22 120 4 9 50 52 101 94 64
53 91 80 84 87 -6 6 -63 13 -126 16 -89 4 -119 8 -130 21 -8 9 -32 68 -54 131
-42 123 -63 146 -83 93z"/>
<path d="M8527 6942 c-3 -4 -24 -59 -47 -122 -23 -63 -46 -119 -52 -125 -5 -5
-68 -12 -141 -15 -86 -3 -132 -9 -132 -16 0 -6 47 -48 104 -94 56 -46 105 -89
108 -96 2 -7 -9 -58 -26 -115 -31 -102 -39 -159 -23 -159 5 0 47 27 93 61 140
101 126 99 222 33 45 -32 94 -66 110 -78 21 -15 30 -17 39 -8 9 9 4 38 -22
130 -18 64 -35 122 -37 129 -3 6 39 48 91 93 97 82 115 110 74 110 -79 0 -225
14 -235 22 -6 5 -30 65 -53 134 -38 113 -57 143 -73 116z"/>
<path d="M1637 5733 c-3 -4 -24 -60 -47 -123 -23 -63 -46 -119 -52 -125 -5 -5
-68 -12 -140 -15 -80 -3 -133 -9 -135 -16 -2 -6 46 -49 107 -97 60 -48 110
-92 110 -98 0 -7 -16 -66 -35 -131 -48 -162 -43 -168 73 -79 42 32 92 66 111
75 l33 18 72 -48 c39 -26 88 -60 109 -77 61 -48 66 -29 28 117 -18 68 -31 131
-29 139 1 8 41 43 87 79 84 64 111 92 99 103 -3 4 -63 10 -132 14 -69 4 -129
11 -133 15 -5 4 -26 62 -48 129 -28 84 -46 123 -57 125 -9 2 -18 -1 -21 -5z"/>
<path d="M8531 5626 c-24 -63 -49 -123 -56 -133 -11 -15 -32 -19 -142 -23
-104 -4 -128 -8 -131 -20 -1 -9 30 -40 80 -77 46 -34 92 -72 104 -85 l21 -23
-35 -128 c-46 -163 -41 -170 61 -94 41 31 91 66 111 77 l36 22 57 -32 c32 -18
87 -53 121 -77 40 -29 67 -42 73 -36 6 6 -1 51 -21 122 -16 61 -30 124 -30
140 0 31 43 77 133 140 26 19 47 40 47 47 0 8 -32 14 -107 19 -60 3 -119 7
-132 8 -21 2 -29 17 -69 135 -34 98 -50 132 -62 132 -12 0 -29 -32 -59 -114z"/>
<path d="M1998 4549 c-9 -13 -33 -69 -54 -123 -52 -138 -49 -136 -193 -136
-95 0 -120 -3 -124 -15 -4 -9 28 -41 98 -97 58 -46 105 -89 105 -97 0 -8 -14
-61 -30 -119 -50 -171 -41 -177 108 -76 52 35 100 64 107 64 6 0 59 -32 118
-71 58 -39 111 -68 117 -64 16 10 12 43 -20 155 -16 58 -30 112 -30 122 0 13
69 73 171 147 37 26 22 38 -58 45 -42 3 -96 6 -120 6 -24 0 -52 4 -62 10 -12
6 -32 51 -55 124 -21 63 -43 122 -50 132 -12 16 -14 16 -28 -7z"/>
<path d="M8233 4558 c-12 -15 -79 -182 -89 -222 -3 -14 -10 -29 -15 -32 -5 -2
-64 -7 -131 -10 -131 -6 -148 -8 -148 -23 0 -5 50 -46 110 -92 75 -56 109 -88
106 -98 -57 -198 -69 -252 -59 -262 8 -8 41 8 118 60 58 39 113 71 121 71 9 0
60 -29 113 -65 54 -36 105 -65 114 -65 23 0 22 18 -10 140 -16 65 -24 115 -19
130 4 14 43 54 91 94 47 38 85 74 85 81 0 10 -35 15 -130 20 -75 5 -134 12
-139 19 -5 6 -26 64 -46 128 -37 120 -54 149 -72 126z"/>
<path d="M1924 3483 c-45 -54 -157 -186 -250 -294 -204 -237 -324 -383 -324
-396 0 -16 127 -133 144 -133 8 0 63 54 122 120 58 66 110 120 115 120 4 0 36
-20 71 -44 105 -73 145 -89 231 -94 74 -4 82 -3 152 32 156 77 231 229 195
399 -16 78 -60 139 -158 218 -45 37 -107 90 -138 118 -31 28 -61 51 -67 51 -7
0 -49 -44 -93 -97z m193 -245 c28 -29 53 -65 56 -79 10 -41 -12 -101 -52 -141
-40 -39 -77 -54 -113 -44 -36 9 -133 70 -133 84 0 12 175 231 185 232 3 0 29
-24 57 -52z"/>
<path d="M8145 3497 c-64 -22 -99 -43 -160 -99 -177 -161 -147 -398 63 -504
52 -26 67 -29 162 -29 64 0 141 7 197 19 106 21 154 16 189 -19 56 -56 16
-146 -76 -174 -51 -15 -91 -7 -130 26 l-30 25 -28 -21 c-47 -33 -102 -100
-102 -123 0 -31 90 -114 137 -127 122 -34 267 20 389 147 68 72 99 142 99 227
-1 84 -24 135 -94 205 -87 87 -200 104 -405 61 -54 -12 -123 -21 -153 -21 -47
0 -59 4 -84 29 -33 33 -37 67 -14 111 34 65 97 68 193 9 23 -13 26 -11 83 51
32 35 59 71 59 79 0 20 -73 87 -121 112 -52 26 -123 32 -174 16z"/>
<path d="M2527 3038 c-181 -311 -427 -738 -442 -768 l-18 -34 33 -27 c46 -39
144 -89 157 -81 11 7 129 207 385 650 71 123 128 231 126 240 -3 17 -151 112
-174 112 -7 0 -37 -42 -67 -92z"/>
<path d="M7521 3035 c-71 -20 -375 -186 -379 -207 -2 -9 47 -112 109 -229 61
-118 166 -319 231 -446 94 -183 124 -233 139 -233 33 0 179 79 179 96 0 9 -36
84 -80 168 -44 84 -80 158 -80 163 0 6 14 16 30 23 27 11 33 10 53 -7 12 -11
84 -73 160 -138 l138 -118 37 17 c56 27 172 105 172 115 0 6 -17 22 -37 38
-52 38 -296 224 -306 234 -5 4 1 36 13 72 43 127 15 252 -81 361 -82 93 -181
123 -298 91z m99 -217 c41 -28 79 -100 80 -149 0 -45 -29 -78 -98 -113 -28
-14 -54 -26 -57 -26 -11 0 -125 244 -117 252 17 17 109 57 133 57 14 1 41 -9
59 -21z"/>
<path d="M2837 2865 c-35 -67 -41 -87 -31 -95 7 -6 72 -39 146 -73 155 -73
160 -76 153 -87 -3 -5 -117 -97 -253 -206 -136 -108 -262 -211 -281 -228 -37
-34 -93 -140 -84 -161 2 -8 53 -37 111 -65 134 -65 450 -200 468 -200 19 0 40
35 64 105 19 56 20 60 3 75 -10 9 -49 29 -88 45 -38 16 -108 46 -154 67 -75
34 -82 40 -70 55 8 9 134 113 282 230 157 126 277 229 291 251 34 53 52 110
40 122 -6 6 -71 37 -145 69 -74 32 -189 86 -256 120 -68 33 -129 61 -137 61
-8 0 -34 -37 -59 -85z"/>
<path d="M6711 2683 l-124 -47 7 -115 c12 -202 55 -824 62 -883 5 -51 9 -58
28 -58 31 0 168 39 184 53 11 9 13 33 10 103 l-4 91 109 42 c77 30 112 39 121
32 7 -6 32 -42 56 -81 25 -38 49 -71 55 -74 17 -6 205 75 205 88 0 21 -54 112
-174 296 -63 96 -176 271 -251 388 -75 116 -142 212 -148 212 -7 -1 -68 -22
-136 -47z m233 -490 l63 -112 -75 -25 c-42 -14 -77 -24 -79 -22 -4 4 -33 325
-33 356 1 16 27 -26 124 -197z"/>
<path d="M3551 2619 c-32 -73 -47 -137 -34 -150 6 -6 76 -30 155 -54 78 -23
143 -47 143 -53 0 -10 -163 -193 -369 -412 -65 -69 -124 -137 -132 -151 -19
-37 -33 -105 -25 -118 9 -13 280 -95 474 -142 104 -25 142 -31 155 -23 16 11
41 101 42 155 0 25 -5 28 -117 58 -65 18 -144 39 -175 48 -32 9 -58 20 -58 25
0 5 58 71 128 146 317 339 383 413 399 449 27 65 32 91 20 101 -7 5 -79 26
-162 46 -134 33 -378 100 -412 113 -8 3 -21 -11 -32 -38z"/>
<path d="M6250 2549 c-74 -15 -211 -41 -305 -57 l-170 -29 2 -83 c4 -116 7
-118 125 -97 55 10 96 13 101 8 9 -9 52 -232 124 -639 14 -84 32 -160 38 -169
11 -14 21 -14 111 1 54 9 102 20 107 25 5 5 -16 140 -47 307 -79 427 -95 518
-90 525 2 4 45 14 96 24 51 10 98 22 104 27 12 9 -5 118 -26 166 -11 26 0 26
-170 -9z"/>
<path d="M4466 2438 c-26 -63 -346 -948 -346 -958 0 -5 4 -11 9 -14 15 -10
191 -35 205 -30 14 5 43 66 66 136 6 21 16 40 20 43 9 5 154 -9 207 -21 13 -2
25 -14 27 -27 3 -12 10 -53 17 -90 8 -43 19 -72 29 -77 27 -14 220 -25 220
-12 0 44 -160 1036 -168 1044 -8 8 -197 38 -242 38 -26 0 -33 -6 -44 -32z
m147 -425 c10 -87 17 -171 17 -187 l0 -29 -67 6 c-37 4 -71 11 -76 16 -5 5 10
68 38 157 26 82 50 159 52 172 11 49 21 15 36 -135z"/>
<path d="M5283 2445 c-77 -21 -125 -48 -165 -93 -53 -58 -72 -117 -66 -204 9
-135 70 -205 263 -307 187 -98 234 -163 166 -232 -25 -24 -38 -29 -79 -29 -65
0 -109 30 -131 90 -17 45 -17 45 -62 42 -25 -1 -67 -8 -95 -15 -59 -15 -64
-30 -38 -126 34 -126 140 -193 305 -193 193 -1 330 86 359 229 15 72 6 133
-31 210 -46 96 -87 125 -307 224 -40 18 -84 46 -98 62 -51 61 -18 143 63 154
55 7 88 -14 114 -74 l19 -46 58 7 c31 4 74 11 96 17 l39 10 -7 45 c-8 60 -42
136 -74 167 -67 65 -219 93 -329 62z"/>
</g>
</svg>
